<svg height="480pt" viewBox="0 0 480 480.25132" width="480pt" xmlns="http://www.w3.org/2000/svg"><path d="m232.125 104.25c0 4.417969-3.582031 8-8 8s-8-3.582031-8-8 3.582031-8 8-8 8 3.582031 8 8zm0 0"/><path d="m200.125 104.25c0 4.417969-3.582031 8-8 8s-8-3.582031-8-8 3.582031-8 8-8 8 3.582031 8 8zm0 0"/><path d="m360.125 176.25c-4.417969 0-8 3.582031-8 8s3.582031 8 8 8h32c4.417969 0 8-3.582031 8-8s-3.582031-8-8-8zm0 0"/><path d="m424.125 176.25c-4.417969 0-8 3.582031-8 8s3.582031 8 8 8h16c4.417969 0 8-3.582031 8-8s-3.582031-8-8-8zm0 0"/><path d="m320.125 320.25h-312c-4.417969 0-8 3.582031-8 8v144c0 4.417969 3.582031 8 8 8s8-3.582031 8-8v-136h304c4.417969 0 8-3.582031 8-8s-3.582031-8-8-8zm0 0"/><path d="m472.125 320.25h-120c-4.417969 0-8 3.582031-8 8s3.582031 8 8 8h112v136c0 4.417969 3.582031 8 8 8s8-3.582031 8-8v-144c0-4.417969-3.582031-8-8-8zm0 0"/><path d="m72.125 424.25h-24v-56c0-4.417969-3.582031-8-8-8s-8 3.582031-8 8v64c0 4.417969 3.582031 8 8 8h32c4.417969 0 8-3.582031 8-8s-3.582031-8-8-8zm0 0"/><path d="m104.125 360.25c-4.417969 0-8 3.582031-8 8v64c0 4.417969 3.582031 8 8 8s8-3.582031 8-8v-64c0-4.417969-3.582031-8-8-8zm0 0"/><path d="m152.125 360.25h-16c-4.417969 0-8 3.582031-8 8v64c0 4.417969 3.582031 8 8 8h16c13.253906 0 24-10.742188 24-24-.035156-5.917969-2.257812-11.617188-6.238281-16 3.980469-4.378906 6.203125-10.078125 6.238281-16 0-13.253906-10.746094-24-24-24zm-8 16h8c4.417969 0 8 3.582031 8 8s-3.582031 8-8 8h-8zm8 48h-8v-16h8c4.417969 0 8 3.582031 8 8s-3.582031 8-8 8zm0 0"/><path d="m216.125 360.25h-16c-4.417969 0-8 3.582031-8 8v64c0 4.417969 3.582031 8 8 8s8-3.582031 8-8v-24h8c4.417969 0 8 3.582031 8 8v16c0 4.417969 3.582031 8 8 8s8-3.582031 8-8v-16c-.035156-5.917969-2.257812-11.617188-6.238281-16 3.980469-4.378906 6.203125-10.078125 6.238281-16 0-13.253906-10.746094-24-24-24zm-8 32v-16h8c4.417969 0 8 3.582031 8 8s-3.582031 8-8 8zm0 0"/><path d="m295.644531 365.453125c-1.148437-3.164063-4.152343-5.273437-7.519531-5.273437-3.363281 0-6.371094 2.109374-7.519531 5.273437l-24 64c-1.546875 4.152344.566406 8.773437 4.71875 10.316406 4.15625 1.546875 8.773437-.566406 10.320312-4.71875l4-10.800781h24.960938l4 10.800781c1.171875 3.136719 4.171875 5.210938 7.519531 5.199219.957031.007812 1.902344-.152344 2.800781-.480469 2-.734375 3.621094-2.238281 4.507813-4.175781.882812-1.9375.960937-4.148438.210937-6.140625zm-14 42.796875 6.480469-17.199219 6.480469 17.199219zm0 0"/><path d="m360.125 360.25h-16c-4.417969 0-8 3.582031-8 8v64c0 4.417969 3.582031 8 8 8s8-3.582031 8-8v-24h8c4.417969 0 8 3.582031 8 8v16c0 4.417969 3.582031 8 8 8s8-3.582031 8-8v-16c-.035156-5.917969-2.257812-11.617188-6.238281-16 3.980469-4.378906 6.203125-10.078125 6.238281-16 0-13.253906-10.746094-24-24-24zm-8 32v-16h8c4.417969 0 8 3.582031 8 8s-3.582031 8-8 8zm0 0"/><path d="m443.726562 361.132812c-3.933593-1.976562-8.722656-.402343-10.722656 3.519532l-8.878906 17.679687-8.878906-17.679687c-2.160156-3.589844-6.726563-4.90625-10.464844-3.015625s-5.386719 6.347656-3.777344 10.214843l15.121094 30.320313v30.078125c0 4.417969 3.582031 8 8 8s8-3.582031 8-8v-30.078125l15.121094-30.320313c1.976562-3.933593.402344-8.722656-3.519532-10.71875zm0 0"/><path d="m472.125 200.25c4.417969 0 8-3.582031 8-8v-48c0-4.417969-3.582031-8-8-8h-144c-4.417969 0-8 3.582031-8 8v112c0 4.417969 3.582031 8 8 8h43.121094l-2.402344 24h-72.71875v-84.238281c0-24.167969-19.589844-43.761719-43.757812-43.761719-4.417969 0-8 3.582031-8 8s3.582031 8 8 8c15.3125.046875 27.714843 12.449219 27.757812 27.761719v20.238281h-24c-4.417969 0-8 3.582031-8 8v56h-80v-56c0-4.417969-3.582031-8-8-8h-24v-20.238281c.042969-15.3125 12.449219-27.714844 27.761719-27.761719h20.238281v16c-.011719 2.128906.824219 4.171875 2.320312 5.679688l13.679688 13.601562v52.71875c0 4.417969 3.582031 8 8 8s8-3.582031 8-8v-52.71875l13.679688-13.601562c1.5-1.507813 2.332031-3.550782 2.320312-5.679688v-37.597656c12.4375-5.90625 22.265625-16.1875 27.601562-28.882813 9.882813 4.15625 21.1875 3.085938 30.117188-2.851562 8.925781-5.933594 14.289062-15.945313 14.28125-26.667969 0-4.417969-3.582031-8-8-8s-8 3.582031-8 8c0 8.835938-7.164062 16-16 16s-16-7.164062-16-16c.015625-1.972656.394531-3.925781 1.121094-5.757812.984375-2.132813.984375-4.589844 0-6.722657-1.132813-2.070312-3.125-3.53125-5.441406-4-11.367188-2.078125-19.636719-11.960937-19.679688-23.519531 0-4.417969-3.582031-8-8-8-4.355469-.015625-8.515625-1.804688-11.519531-4.957031-3.046875-3.203125-8.117188-3.332031-11.320313-.28125-3.203125 3.046875-3.328125 8.117187-.28125 11.320312 4.335938 4.511719 9.898438 7.65625 16 9.039063 2.308594 13.097656 10.972656 24.191406 23.121094 29.601562v3.277344c.011719 6.8125 2.230469 13.4375 6.320312 18.882812-5.65625 18.917969-24.269531 30.878907-43.828124 28.160157-19.558594-2.714844-34.207032-19.296875-34.492188-39.042969v-2.160156c13.078125-4.496094 22.410156-16.101563 24-29.839844.488281-4.417969-2.699219-8.394531-7.121094-8.878906-4.417968-.484375-8.390625 2.703125-8.878906 7.121094-1.003906 9.582031-8.71875 17.070312-18.324219 17.789062-9.609375.71875-18.355469-5.542969-20.769531-14.867188-2.417969-9.328124 2.1875-19.046874 10.933594-23.082031 3.089844-1.414062 4.949218-4.621093 4.640625-8l-.480469-2.082031c.011719-10.5 6.847656-19.777344 16.878906-22.894531 10.027344-3.117188 20.921875.648437 26.882813 9.296875 1.621093 2.363281 4.382812 3.683594 7.242187 3.449218 2.859375-.230468 5.375-1.972656 6.597656-4.570312 2.597657-5.617188 8.207032-9.234375 14.398438-9.28125 7.125.058594 13.355469 4.820312 15.28125 11.679688.589844 2.050781 1.972656 3.777343 3.839844 4.800781 1.882812 1.03125 4.105468 1.261719 6.160156.640625 2.167969-.714844 4.433594-1.09375 6.71875-1.121094 8.9375.023438 17.121094 5.011719 21.238281 12.945312 4.117188 7.929688 3.484375 17.492188-1.636719 24.816407-2.511718 3.625-1.617187 8.597656 2 11.121093 3.601563 2.527344 8.570313 1.667969 11.117188-1.921874 9.144531-12.839844 9.894531-29.855469 1.914062-43.449219-7.980468-13.59375-23.203124-21.234375-38.871093-19.511719-4.925781-8.597656-13.554688-14.429688-23.371094-15.792969s-19.710937 1.898438-26.789063 8.835938c-11.699218-9.765625-27.933593-12.035157-41.863281-5.851563-13.925781 6.183594-23.132812 19.742188-23.738281 34.96875-12.960938 8.203125-19.246094 23.757813-15.625 38.664063 3.621094 14.902343 16.347656 25.835937 31.625 27.175781.015625 21.617188 12.46875 41.296875 32 50.5625v5.4375h-20.238281c-24.167969 0-43.761719 19.59375-43.761719 43.761719v84.238281h-17.4375c.929688-2.5625 1.417969-5.269531 1.4375-8-.035156-5.917969-2.257812-11.617188-6.238281-16 8.148437-9.109375 8.148437-22.886719 0-32 3.980469-4.378906 6.203125-10.078125 6.238281-16 0-13.253906-10.746094-24-24-24h-48c-4.417969 0-8 3.582031-8 8v24h-8c-4.417969 0-8 3.582031-8 8s3.582031 8 8 8h64c4.417969 0 8 3.582031 8 8s-3.582031 8-8 8h-64c-4.417969 0-8 3.582031-8 8s3.582031 8 8 8h8v16h-16c-4.417969 0-8 3.582031-8 8s3.582031 8 8 8h464c4.417969 0 8-3.582031 8-8s-3.582031-8-8-8h-40.71875l-2.402344-24h43.121094c4.417969 0 8-3.582031 8-8v-33.679688c0-4.417968-3.582031-8-8-8s-8 3.582032-8 8v25.679688h-36.71875l-1.761719-16.878906c-1.457031-12.992188-12.445312-22.816406-25.519531-22.816406s-24.0625 9.824218-25.519531 22.816406l-1.761719 16.878906h-36.71875v-96h128v40c0 4.417969 3.582031 8 8 8zm-264-40c2.683594-.035156 5.355469-.277344 8-.71875v29.441406l-8 8-8-8v-29.363281c2.648438.417969 5.320312.632813 8 .640625zm-72 80h16v48h-16zm-96-16v-16h40c4.417969 0 8 3.582031 8 8s-3.582031 8-8 8zm0 64v-16h40c4.417969 0 8 3.582031 8 8s-3.582031 8-8 8zm224-48h16v48h-16zm136-16c4.960938.019531 9.109375 3.785156 9.601562 8.722656l5.597657 55.277344h-30.398438l5.601563-55.277344c.492187-4.9375 4.636718-8.703125 9.597656-8.722656zm0 0"/></svg>